<svg width="24" height="24" viewBox="0 0 24 24" fill="none" xmlns="http://www.w3.org/2000/svg">
<path d="M4.65337 10.754L2.25477 9.33015C1.91508 9.1285 1.91508 8.64142 2.25477 8.43977L10.9201 3.29594C11.5848 2.90135 12.4152 2.90135 13.0799 3.29594L21.7452 8.43977C22.0849 8.64142 22.0849 9.1285 21.7452 9.33015L19.3466 10.754M4.65337 10.754L10.92 14.474C11.5847 14.8686 12.4152 14.8686 13.0799 14.474L19.3466 10.754M4.65337 10.754V15.8083C4.65337 16.5377 5.04022 17.2137 5.67246 17.589L10.92 20.7041C11.5847 21.0986 12.4152 21.0986 13.0799 20.7041L18.3275 17.589C18.9598 17.2137 19.3466 16.5377 19.3466 15.8083V10.754M12 9H15" stroke="url(#paint0_linear_12_2871)" stroke-width="2" stroke-linecap="round"/>
<defs>
<linearGradient id="paint0_linear_12_2871" x1="22.0002" y1="12.0273" x2="2.00024" y2="12.0273" gradientUnits="userSpaceOnUse">
<stop stop-color="#FE7053"/>
<stop offset="0.504808" stop-color="#E663A6"/>
<stop offset="1" stop-color="#D75BE5"/>
</linearGradient>
</defs>
</svg>
