<svg width="72" height="72" viewBox="0 0 72 72" fill="none" xmlns="http://www.w3.org/2000/svg">
<rect width="72" height="72" fill="white"/>
<g clip-path="url(#clip0_6901_859)">
<path d="M53.7876 46.0647L36.072 56.0943L18.3564 46.0647V26.0079L36.072 15.9795L53.7876 26.0079V46.0647Z" fill="#292D33"/>
<path fill-rule="evenodd" clip-rule="evenodd" d="M56.0734 47.3989L36.0694 58.7233L16.0654 47.4001V24.6745L36.0706 13.3477L56.0746 24.6733L56.0734 47.3989ZM36.0694 56.0941L53.785 46.0645V26.0077L36.0694 15.9781L18.355 26.0077V46.0645L36.0694 56.0941Z" fill="#292D33"/>
<path d="M50.92 44.574L36.0712 53.112L21.2236 44.574V27.498L36.0712 18.96L50.92 27.4992V44.574Z" fill="url(#paint0_linear_6901_859)"/>
<path d="M50.92 44.574L36.0712 53.112L21.2236 44.574V27.498L36.0712 18.96L50.92 27.4992V44.574Z" fill="url(#paint1_linear_6901_859)"/>
<path d="M36.0312 36.0768L50.9197 27.498V44.574L36.0312 53.112V36.0768Z" fill="#1E041E"/>
</g>
<defs>
<linearGradient id="paint0_linear_6901_859" x1="58.5811" y1="25.7185" x2="26.9725" y2="40.2074" gradientUnits="userSpaceOnUse">
<stop stop-color="#FF5C00"/>
<stop offset="0.81" stop-color="#EF612B"/>
<stop offset="1" stop-color="#E0531D"/>
</linearGradient>
<linearGradient id="paint1_linear_6901_859" x1="44.8359" y1="21.205" x2="39.8041" y2="48.2994" gradientUnits="userSpaceOnUse">
<stop stop-color="#FAD2A7"/>
<stop offset="0.365" stop-color="#F25064"/>
<stop offset="0.665" stop-color="#F90C30"/>
<stop offset="0.915" stop-color="#F48824"/>
</linearGradient>
<clipPath id="clip0_6901_859">
<rect width="40.8" height="46.8" fill="white" transform="translate(15.5996 12.6001)"/>
</clipPath>
</defs>
</svg>
