<svg width="20" height="20" viewBox="0 0 20 20" fill="none" xmlns="http://www.w3.org/2000/svg">
<path d="M6.28834 14.9093L6.66667 14.1667V14.1667L6.28834 14.9093ZM5.92416 14.5451L6.66667 14.1667H6.66667L5.92416 14.5451ZM14.0758 14.5451L14.8183 14.9234L14.8183 14.9234L14.0758 14.5451ZM13.7117 14.9093L13.3333 14.1667L13.3333 14.1667L13.7117 14.9093ZM4.32003 17.9701L4.69836 17.2276L4.32003 17.9701ZM2.86331 16.5134L3.60582 16.1351L2.86331 16.5134ZM17.1367 16.5134L16.3942 16.1351L17.1367 16.5134ZM15.68 17.9701L15.3016 17.2276L15.68 17.9701ZM15.68 3.69673L15.3016 4.43923L15.68 3.69673ZM17.1367 5.15345L16.3942 5.53177L17.1367 5.15345ZM4.32003 3.69673L4.69836 4.43923L4.32003 3.69673ZM2.86331 5.15345L3.60582 5.53177L2.86331 5.15345ZM2.5 7.50008C2.03976 7.50008 1.66667 7.87318 1.66667 8.33341C1.66667 8.79365 2.03976 9.16675 2.5 9.16675V8.33341V7.50008ZM17.5 9.16675C17.9602 9.16675 18.3333 8.79365 18.3333 8.33341C18.3333 7.87318 17.9602 7.50008 17.5 7.50008V8.33341V9.16675ZM5.83333 5.00008C5.83333 5.46032 6.20643 5.83341 6.66667 5.83341C7.1269 5.83341 7.5 5.46032 7.5 5.00008H6.66667H5.83333ZM7.5 1.66675C7.5 1.20651 7.1269 0.833415 6.66667 0.833415C6.20643 0.833415 5.83333 1.20651 5.83333 1.66675H6.66667H7.5ZM12.5 5.00008C12.5 5.46032 12.8731 5.83341 13.3333 5.83341C13.7936 5.83341 14.1667 5.46032 14.1667 5.00008H13.3333H12.5ZM14.1667 1.66675C14.1667 1.20651 13.7936 0.833415 13.3333 0.833415C12.8731 0.833415 12.5 1.20651 12.5 1.66675H13.3333H14.1667ZM14.1667 8.33341H13.3333V13.6667H14.1667H15V8.33341H14.1667ZM12.8333 15.0001V14.1667H7.16667V15.0001V15.8334H12.8333V15.0001ZM5.83333 13.6667H6.66667V8.33341H5.83333H5V13.6667H5.83333ZM7.16667 15.0001V14.1667C6.91956 14.1667 6.78435 14.1661 6.68719 14.1582C6.59977 14.151 6.61874 14.1423 6.66667 14.1667L6.28834 14.9093L5.91002 15.6518C6.1362 15.767 6.36098 15.8037 6.55148 15.8193C6.73224 15.8341 6.94706 15.8334 7.16667 15.8334V15.0001ZM5.83333 13.6667H5C5 13.8864 4.99935 14.1012 5.01412 14.2819C5.02969 14.4724 5.06641 14.6972 5.18166 14.9234L5.92416 14.5451L6.66667 14.1667C6.69109 14.2147 6.6824 14.2336 6.67525 14.1462C6.66731 14.0491 6.66667 13.9139 6.66667 13.6667H5.83333ZM6.28834 14.9093L6.66667 14.1667H6.66667L5.92416 14.5451L5.18166 14.9234C5.34145 15.237 5.59641 15.492 5.91002 15.6518L6.28834 14.9093ZM14.1667 13.6667H13.3333C13.3333 13.9139 13.3327 14.0491 13.3247 14.1462C13.3176 14.2336 13.3089 14.2147 13.3333 14.1667L14.0758 14.5451L14.8183 14.9234C14.9336 14.6972 14.9703 14.4724 14.9859 14.2819C15.0006 14.1012 15 13.8864 15 13.6667H14.1667ZM12.8333 15.0001V15.8334C13.0529 15.8334 13.2678 15.8341 13.4485 15.8193C13.639 15.8037 13.8638 15.767 14.09 15.6518L13.7117 14.9093L13.3333 14.1667C13.3813 14.1423 13.4002 14.151 13.3128 14.1582C13.2157 14.1661 13.0804 14.1667 12.8333 14.1667V15.0001ZM14.0758 14.5451L13.3333 14.1667V14.1667L13.7117 14.9093L14.09 15.6518C14.4036 15.492 14.6586 15.237 14.8183 14.9234L14.0758 14.5451ZM7.83333 3.33341V4.16675H12.1667V3.33341V2.50008H7.83333V3.33341ZM17.5 8.66675H16.6667V13.0001H17.5H18.3333V8.66675H17.5ZM12.1667 18.3334V17.5001H7.83333V18.3334V19.1667H12.1667V18.3334ZM2.5 13.0001H3.33333V8.66675H2.5H1.66667V13.0001H2.5ZM7.83333 18.3334V17.5001C6.88616 17.5001 6.2259 17.4994 5.71187 17.4574C5.20756 17.4162 4.91782 17.3394 4.69836 17.2276L4.32003 17.9701L3.94171 18.7126C4.43528 18.9641 4.96877 19.0689 5.57615 19.1186C6.17379 19.1674 6.91366 19.1667 7.83333 19.1667V18.3334ZM2.5 13.0001H1.66667C1.66667 13.9198 1.66602 14.6596 1.71485 15.2573C1.76447 15.8646 1.86932 16.3981 2.12081 16.8917L2.86331 16.5134L3.60582 16.1351C3.494 15.9156 3.41718 15.6259 3.37598 15.1215C3.33398 14.6075 3.33333 13.9473 3.33333 13.0001H2.5ZM4.32003 17.9701L4.69836 17.2276C4.22795 16.9879 3.8455 16.6055 3.60582 16.1351L2.86331 16.5134L2.12081 16.8917C2.52028 17.6757 3.1577 18.3131 3.94171 18.7126L4.32003 17.9701ZM17.5 13.0001H16.6667C16.6667 13.9473 16.666 14.6075 16.624 15.1215C16.5828 15.6259 16.506 15.9156 16.3942 16.1351L17.1367 16.5134L17.8792 16.8917C18.1307 16.3981 18.2355 15.8646 18.2852 15.2573C18.334 14.6596 18.3333 13.9198 18.3333 13.0001H17.5ZM12.1667 18.3334V19.1667C13.0863 19.1667 13.8262 19.1674 14.4239 19.1186C15.0312 19.0689 15.5647 18.9641 16.0583 18.7126L15.68 17.9701L15.3016 17.2276C15.0822 17.3394 14.7924 17.4162 14.2881 17.4574C13.7741 17.4994 13.1138 17.5001 12.1667 17.5001V18.3334ZM17.1367 16.5134L16.3942 16.1351C16.1545 16.6055 15.772 16.9879 15.3016 17.2276L15.68 17.9701L16.0583 18.7126C16.8423 18.3131 17.4797 17.6757 17.8792 16.8917L17.1367 16.5134ZM12.1667 3.33341V4.16675C13.1138 4.16675 13.7741 4.1674 14.2881 4.20939C14.7924 4.2506 15.0822 4.32741 15.3016 4.43923L15.68 3.69673L16.0583 2.95422C15.5647 2.70273 15.0312 2.59789 14.4239 2.54826C13.8262 2.49943 13.0863 2.50008 12.1667 2.50008V3.33341ZM17.5 8.66675H18.3333C18.3333 7.74708 18.334 7.00721 18.2852 6.40956C18.2355 5.80219 18.1307 5.2687 17.8792 4.77512L17.1367 5.15345L16.3942 5.53177C16.506 5.75124 16.5828 6.04098 16.624 6.54528C16.666 7.05932 16.6667 7.71958 16.6667 8.66675H17.5ZM15.68 3.69673L15.3016 4.43923C15.772 4.67892 16.1545 5.06137 16.3942 5.53177L17.1367 5.15345L17.8792 4.77512C17.4797 3.99111 16.8423 3.35369 16.0583 2.95422L15.68 3.69673ZM7.83333 3.33341V2.50008C6.91366 2.50008 6.17379 2.49943 5.57615 2.54826C4.96877 2.59789 4.43528 2.70273 3.94171 2.95422L4.32003 3.69673L4.69836 4.43923C4.91782 4.32741 5.20756 4.2506 5.71187 4.20939C6.2259 4.1674 6.88616 4.16675 7.83333 4.16675V3.33341ZM2.5 8.66675H3.33333C3.33333 7.71958 3.33398 7.05932 3.37598 6.54528C3.41718 6.04098 3.494 5.75124 3.60582 5.53177L2.86331 5.15345L2.12081 4.77512C1.86932 5.2687 1.76447 5.80219 1.71485 6.40956C1.66602 7.00721 1.66667 7.74708 1.66667 8.66675H2.5ZM4.32003 3.69673L3.94171 2.95422C3.1577 3.35369 2.52028 3.99111 2.12081 4.77512L2.86331 5.15345L3.60582 5.53177C3.8455 5.06137 4.22795 4.67892 4.69836 4.43923L4.32003 3.69673ZM2.5 8.33341V9.16675H17.5V8.33341V7.50008H2.5V8.33341ZM6.66667 5.00008H7.5V1.66675H6.66667H5.83333V5.00008H6.66667ZM13.3333 5.00008H14.1667V1.66675H13.3333H12.5V5.00008H13.3333Z" fill="black"/>
</svg>
