<svg width="72" height="72" viewBox="0 0 72 72" fill="none" xmlns="http://www.w3.org/2000/svg">
<rect width="72" height="72" fill="#0080FF"/>
<path d="M50.501 30.4142C50.3508 30.4595 50.1893 30.5661 50.0522 30.5411C48.2082 30.2049 46.549 30.6036 45.0964 31.8663C44.9942 31.8283 44.8922 31.7901 44.7899 31.7521C44.7899 30.8904 44.7315 30.0239 44.8078 29.169C44.873 28.4353 44.5714 28.0003 43.9806 27.6633C39.9681 25.3735 35.9663 23.0651 31.9329 20.8128C31.5864 20.6194 30.9402 20.6202 30.5945 20.8147C26.6331 23.0449 22.7125 25.3468 18.7551 27.5844C18.0919 27.9593 17.8133 28.3612 17.8181 29.135C17.8463 33.7173 17.8011 38.3001 17.849 42.8821C17.8536 43.3169 18.2247 43.9256 18.6061 44.1511C22.5862 46.5033 26.5958 48.8061 30.6232 51.0773C30.9483 51.2607 31.5559 51.268 31.8788 51.0864C35.9428 48.8018 39.971 46.454 44.0293 44.1597C44.6358 43.8168 44.8392 43.4117 44.8078 42.7501C44.7618 41.7772 44.7959 40.8008 44.7959 39.6192C45.2314 39.8357 45.5046 40.0297 45.8084 40.1126C46.9918 40.435 48.1744 40.8929 49.3781 40.9673C50.2908 41.0238 50.5556 41.2374 50.5112 42.0918C50.4282 43.6878 50.9118 45.5773 50.2077 46.8021C49.5112 48.0133 47.6567 48.5846 46.2793 49.3838C41.6065 52.0957 36.9098 54.7666 32.2502 57.5008C31.5386 57.9184 31.0211 57.9256 30.3189 57.5165C24.566 54.1627 18.809 50.8154 13.0084 47.5449C12.1328 47.0512 12.0379 46.4514 12.039 45.6406C12.0476 39.3342 12.1063 33.0267 12.0008 26.7219C11.9773 25.3188 12.4601 24.6562 13.6059 24.0095C19.0624 20.9294 24.4813 17.782 29.888 14.6157C30.8423 14.0568 31.624 14.0256 32.5913 14.5923C38.2331 17.8967 43.8981 21.1624 49.5726 24.4114C50.2754 24.8138 50.5678 25.2671 50.521 26.0921C50.439 27.537 50.485 28.9888 50.4774 30.4379L50.501 30.4142Z" fill="white"/>
<path d="M50.4773 30.4375C51.3529 29.3811 52.2442 28.3371 53.0795 27.25C53.1645 27.1395 52.9324 26.7619 52.8128 26.5254C51.7863 24.4971 52.5613 22.0937 54.5167 21.2633C56.6936 20.3388 59.0129 21.2668 59.7565 23.3597C60.5339 25.5482 59.3986 27.9139 57.1543 28.4214C56.0964 28.6606 55.5121 29.1942 55.056 30.0688C54.8037 30.5531 54.478 31.0007 54.1699 31.4543C53.4374 32.5328 52.911 33.5143 53.2061 35.0235C53.6446 37.2662 52.3105 39.2285 50.4357 39.9142C48.4464 40.642 46.3815 40.0201 45.1204 38.2615C44.8099 37.8283 44.458 37.3058 44.4358 36.8107C44.389 35.7546 43.775 35.3648 42.934 34.964C41.4476 34.2553 40.0229 33.4187 38.4832 32.5875C37.2749 33.7032 35.7988 34.1832 34.1215 34.2179C33.1166 34.2386 31.4387 37.8499 32.0194 38.6388C32.8198 39.7262 33.1279 40.9208 33.0852 42.2673C33.0173 44.4006 31.4901 46.5142 29.3829 47.2423C27.4575 47.9076 24.6576 47.0476 23.4019 45.4363C21.9142 43.5274 21.822 41.4566 22.8718 39.3895C23.8804 37.4033 25.6433 36.4923 27.8868 36.5338C28.2384 36.5403 28.5903 36.5346 28.9444 36.5346C29.1714 36.0818 29.387 35.6339 29.6177 35.1938C30.3464 33.805 31.1663 32.6266 30.0775 30.8246C29.0361 29.1004 29.7042 27.1093 31.1246 25.6713C32.571 24.2068 34.4022 23.6646 36.4188 24.4352C38.3756 25.1829 39.619 26.5981 39.7313 28.7249C39.7819 29.6844 40.1157 30.1234 40.9786 30.49C42.2345 31.0236 43.3919 31.7832 44.6251 32.3766C44.9311 32.5239 45.4823 32.5573 45.7239 32.379C46.8543 31.5448 48.0924 31.1516 49.4733 31.3019C50.2131 31.3821 50.4857 31.0858 50.5011 30.4141L50.4773 30.4375Z" fill="white"/>
</svg>
