<svg width="576" height="324" viewBox="0 0 576 324" fill="none" xmlns="http://www.w3.org/2000/svg">
<g opacity="0.08">
<path d="M360.742 237.455C325.497 237.455 296.925 266.028 296.925 301.273V393.183C296.925 428.428 325.497 457 360.742 457H576.002V237.455H360.742ZM0 457H215.26C250.505 457 279.077 428.428 279.077 393.183V301.273C279.077 266.028 250.505 237.455 215.26 237.455H0V457ZM360.737 0C325.492 0 296.919 28.572 296.919 63.8174V155.727C296.919 190.972 325.492 219.545 360.737 219.545H575.996V0H360.737ZM0.0429688 219.545H215.303C250.548 219.545 279.12 190.972 279.12 155.727V63.8174C279.12 28.572 250.548 1.99968e-05 215.303 0H0.0429688V219.545Z" fill="url(#paint0_linear_6920_212)"/>
</g>
<defs>
<linearGradient id="paint0_linear_6920_212" x1="576.002" y1="114.085" x2="0.0018032" y2="121.659" gradientUnits="userSpaceOnUse">
<stop stop-color="white"/>
<stop offset="1" stop-color="white" stop-opacity="0"/>
</linearGradient>
</defs>
</svg>
