<svg width="375" height="352" viewBox="0 0 375 352" fill="none" xmlns="http://www.w3.org/2000/svg">
<g opacity="0.05">
<path d="M115.809 196.407C151.054 196.407 179.626 224.979 179.626 260.225V314.183C179.626 349.428 151.054 378 115.809 378H-51V196.407H115.809ZM425.002 378H258.193C222.948 378 194.375 349.428 194.375 314.183V260.225C194.375 224.979 222.948 196.407 258.193 196.407H425.002V378ZM115.813 0C151.059 0.00018298 179.631 28.5721 179.631 63.8174V117.774C179.631 153.02 151.059 181.593 115.813 181.593H-50.9951V0H115.813ZM424.966 181.593H258.157C222.912 181.593 194.34 153.02 194.34 117.774V63.8174C194.34 28.572 222.912 4.27902e-05 258.157 0H424.966V181.593Z" fill="url(#paint0_linear_6901_2615)"/>
</g>
<defs>
<linearGradient id="paint0_linear_6901_2615" x1="-51" y1="94.3636" x2="425.001" y2="100.617" gradientUnits="userSpaceOnUse">
<stop stop-color="white"/>
<stop offset="1" stop-color="white" stop-opacity="0"/>
</linearGradient>
</defs>
</svg>
