<svg width="20" height="20" viewBox="0 0 20 20" fill="none" xmlns="http://www.w3.org/2000/svg">
<path d="M4.53501 13.9044L4.21018 14.6718H4.21018L4.53501 13.9044ZM4.53501 7.7623L4.85985 8.52972V8.52972L4.53501 7.7623ZM5.15816 7.65221L5 8.4704H5L5.15816 7.65221ZM5.69182 8.00582L6.38363 7.54124V7.54124L5.69182 8.00582ZM5.15816 14.0145L5 13.1963L5 13.1963L5.15816 14.0145ZM5.69182 13.6609L5 13.1963L5 13.1963L5.69182 13.6609ZM15.465 13.9044L15.7898 14.6718V14.6718L15.465 13.9044ZM15.465 7.7623L15.1401 8.52972V8.52972L15.465 7.7623ZM14.8418 7.65221L15 8.4704V8.4704L14.8418 7.65221ZM14.3082 8.00582L13.6164 7.54124L13.6164 7.54124L14.3082 8.00582ZM14.8418 14.0145L15 13.1963L15 13.1963L14.8418 14.0145ZM14.3082 13.6609L15 13.1963L15 13.1963L14.3082 13.6609ZM16.6667 14.1667C16.6667 13.7064 16.2936 13.3333 15.8333 13.3333C15.3731 13.3333 15 13.7064 15 14.1667H15.8333H16.6667ZM10 15.8333C9.53976 15.8333 9.16667 16.2064 9.16667 16.6667C9.16667 17.1269 9.53976 17.5 10 17.5V16.6667V15.8333ZM4.53501 13.9044L4.85985 13.1369C3.96124 12.7566 3.33333 11.8673 3.33333 10.8333H2.5H1.66667C1.66667 12.5601 2.71691 14.0397 4.21018 14.6718L4.53501 13.9044ZM2.5 10.8333H3.33333C3.33333 9.79935 3.96124 8.91009 4.85985 8.52972L4.53501 7.7623L4.21018 6.99489C2.71691 7.62697 1.66667 9.10654 1.66667 10.8333H2.5ZM5.83333 12.8333H6.66667V8.83333H5.83333H5V12.8333H5.83333ZM4.53501 7.7623L4.85985 8.52972C4.92637 8.50156 4.96417 8.48571 4.99569 8.47386C5.02418 8.46316 5.03008 8.46253 5.02393 8.46387C5.01461 8.4659 5.00088 8.46762 4.98774 8.46758C4.97662 8.46754 4.97839 8.46622 5 8.4704L5.15816 7.65221L5.31631 6.83402C5.09843 6.7919 4.88948 6.78742 4.66927 6.83537C4.48436 6.87564 4.31395 6.95096 4.21018 6.99489L4.53501 7.7623ZM5.83333 8.83333H6.66667C6.66667 8.48963 6.69328 8.00234 6.38363 7.54124L5.69182 8.00582L5 8.4704C5.00007 8.47049 4.99838 8.46797 4.99595 8.4632C4.99348 8.45835 4.99124 8.45314 4.98947 8.44822C4.98573 8.43781 4.9873 8.43762 4.99002 8.4575C4.9931 8.47997 4.9963 8.5174 4.9981 8.58311C4.99994 8.64973 5 8.72729 5 8.83333H5.83333ZM5.15816 7.65221L5 8.4704C4.98753 8.46798 4.97766 8.46553 4.97061 8.46359C4.9635 8.46163 4.9583 8.45994 4.9551 8.45884C4.94904 8.45675 4.9478 8.45596 4.95129 8.45757C4.95456 8.45909 4.96028 8.46192 4.96799 8.46626C4.97563 8.47057 4.98403 8.47568 4.99269 8.48142C5.00135 8.48716 5.00934 8.49291 5.01628 8.49826C5.02329 8.50367 5.02813 8.50783 5.03079 8.51026C5.03364 8.51284 5.03243 8.51201 5.02814 8.50724C5.02588 8.50472 5.0223 8.50059 5.01773 8.49481C5.01319 8.48907 5.00708 8.48094 5 8.4704L5.69182 8.00582L6.38363 7.54124C6.24835 7.33978 6.05771 7.18777 5.91329 7.09208C5.76887 6.99638 5.55457 6.88007 5.31631 6.83402L5.15816 7.65221ZM4.53501 13.9044L4.21018 14.6718C4.31395 14.7157 4.48436 14.791 4.66927 14.8313C4.88948 14.8793 5.09843 14.8748 5.31631 14.8326L5.15816 14.0145L5 13.1963C4.97839 13.2004 4.97661 13.1991 4.98774 13.1991C5.00088 13.199 5.01461 13.2008 5.02393 13.2028C5.03007 13.2041 5.02418 13.2035 4.99569 13.1928C4.96417 13.181 4.92637 13.1651 4.85985 13.1369L4.53501 13.9044ZM5.83333 12.8333H5C5 12.9394 4.99994 13.0169 4.9981 13.0836C4.9963 13.1493 4.9931 13.1867 4.99002 13.2092C4.9873 13.2291 4.98573 13.2289 4.98947 13.2184C4.99124 13.2135 4.99348 13.2083 4.99595 13.2035C4.99838 13.1987 5.00007 13.1962 5 13.1963L5.69182 13.6609L6.38363 14.1254C6.69328 13.6643 6.66667 13.177 6.66667 12.8333H5.83333ZM5.15816 14.0145L5.31631 14.8326C5.55457 14.7866 5.76887 14.6703 5.91329 14.5746C6.05771 14.4789 6.24835 14.3269 6.38363 14.1254L5.69182 13.6609L5 13.1963C5.00708 13.1857 5.01319 13.1776 5.01773 13.1719C5.0223 13.1661 5.02588 13.1619 5.02814 13.1594C5.03243 13.1547 5.03364 13.1538 5.03079 13.1564C5.02813 13.1588 5.02329 13.163 5.01628 13.1684C5.00934 13.1738 5.00135 13.1795 4.99269 13.1852C4.98403 13.191 4.97563 13.1961 4.96799 13.2004C4.96028 13.2048 4.95456 13.2076 4.95129 13.2091C4.9478 13.2107 4.94904 13.2099 4.9551 13.2078C4.9583 13.2067 4.9635 13.205 4.97061 13.2031C4.97766 13.2011 4.98753 13.1987 5 13.1963L5.15816 14.0145ZM15.465 13.9044L15.7898 14.6718C17.2831 14.0397 18.3333 12.5601 18.3333 10.8333H17.5H16.6667C16.6667 11.8673 16.0388 12.7566 15.1402 13.1369L15.465 13.9044ZM17.5 10.8333H18.3333C18.3333 9.10654 17.2831 7.62697 15.7898 6.99489L15.465 7.7623L15.1401 8.52972C16.0388 8.91009 16.6667 9.79935 16.6667 10.8333H17.5ZM14.1667 12.8333H15V8.83333H14.1667H13.3333V12.8333H14.1667ZM15.465 7.7623L15.7898 6.99489C15.686 6.95096 15.5156 6.87564 15.3307 6.83537C15.1105 6.78742 14.9016 6.7919 14.6837 6.83402L14.8418 7.65221L15 8.4704C15.0216 8.46622 15.0234 8.46754 15.0123 8.46758C14.9991 8.46762 14.9854 8.4659 14.9761 8.46387C14.9699 8.46253 14.9758 8.46316 15.0043 8.47386C15.0358 8.48571 15.0736 8.50156 15.1401 8.52972L15.465 7.7623ZM14.1667 8.83333H15C15 8.72729 15.0001 8.64973 15.0019 8.58311C15.0037 8.5174 15.0069 8.47997 15.01 8.4575C15.0127 8.43762 15.0143 8.43781 15.0105 8.44822C15.0088 8.45314 15.0065 8.45835 15.004 8.4632C15.0016 8.46797 14.9999 8.47049 15 8.4704L14.3082 8.00582L13.6164 7.54124C13.3067 8.00234 13.3333 8.48964 13.3333 8.83333H14.1667ZM14.8418 7.65221L14.6837 6.83402C14.4454 6.88007 14.2311 6.99638 14.0867 7.09208C13.9423 7.18777 13.7516 7.33978 13.6164 7.54124L14.3082 8.00582L15 8.4704C14.9929 8.48094 14.9868 8.48907 14.9823 8.49481C14.9777 8.5006 14.9741 8.50472 14.9719 8.50724C14.9676 8.51201 14.9664 8.51284 14.9692 8.51026C14.9719 8.50783 14.9767 8.50367 14.9837 8.49826C14.9907 8.49291 14.9986 8.48716 15.0073 8.48142C15.016 8.47568 15.0244 8.47057 15.032 8.46626C15.0397 8.46192 15.0454 8.45909 15.0487 8.45757C15.0522 8.45596 15.051 8.45675 15.0449 8.45884C15.0417 8.45994 15.0365 8.46163 15.0294 8.46359C15.0223 8.46553 15.0125 8.46798 15 8.4704L14.8418 7.65221ZM15.465 13.9044L15.1402 13.1369C15.0736 13.1651 15.0358 13.181 15.0043 13.1928C14.9758 13.2035 14.9699 13.2041 14.9761 13.2028C14.9854 13.2008 14.9991 13.199 15.0123 13.1991C15.0234 13.1991 15.0216 13.2004 15 13.1963L14.8418 14.0145L14.6837 14.8326C14.9016 14.8748 15.1105 14.8793 15.3307 14.8313C15.5156 14.791 15.686 14.7157 15.7898 14.6718L15.465 13.9044ZM14.1667 12.8333H13.3333C13.3333 13.177 13.3067 13.6643 13.6164 14.1254L14.3082 13.6609L15 13.1963C14.9999 13.1962 15.0016 13.1987 15.004 13.2035C15.0065 13.2083 15.0088 13.2135 15.0105 13.2184C15.0143 13.2289 15.0127 13.2291 15.01 13.2092C15.0069 13.1867 15.0037 13.1493 15.0019 13.0836C15.0001 13.0169 15 12.9394 15 12.8333H14.1667ZM14.8418 14.0145L15 13.1963C15.0125 13.1987 15.0223 13.2011 15.0294 13.2031C15.0365 13.205 15.0417 13.2067 15.0449 13.2078C15.051 13.2099 15.0522 13.2107 15.0487 13.2091C15.0454 13.2076 15.0397 13.2048 15.032 13.2004C15.0244 13.1961 15.016 13.191 15.0073 13.1852C14.9986 13.1795 14.9907 13.1738 14.9837 13.1684C14.9767 13.163 14.9719 13.1588 14.9692 13.1564C14.9664 13.1538 14.9676 13.1547 14.9719 13.1594C14.9741 13.1619 14.9777 13.1661 14.9823 13.1719C14.9868 13.1776 14.9929 13.1857 15 13.1963L14.3082 13.6609L13.6164 14.1254C13.7516 14.3269 13.9423 14.4789 14.0867 14.5746C14.2311 14.6703 14.4454 14.7866 14.6837 14.8326L14.8418 14.0145ZM4.16667 8.33333H5C5 5.57191 7.23858 3.33333 10 3.33333V2.5V1.66667C6.3181 1.66667 3.33333 4.65144 3.33333 8.33333H4.16667ZM10 2.5V3.33333C12.7614 3.33333 15 5.57191 15 8.33333H15.8333H16.6667C16.6667 4.65144 13.6819 1.66667 10 1.66667V2.5ZM15.8333 14.1667H15V15H15.8333H16.6667V14.1667H15.8333ZM14.1667 16.6667V15.8333H10V16.6667V17.5H14.1667V16.6667ZM15.8333 15H15C15 15.4602 14.6269 15.8333 14.1667 15.8333V16.6667V17.5C15.5474 17.5 16.6667 16.3807 16.6667 15H15.8333Z" fill="white"/>
</svg>
