<svg width="20" height="20" viewBox="0 0 20 20" fill="none" xmlns="http://www.w3.org/2000/svg">
<path d="M7.1875 18.3332V11.6343C7.1875 11.1058 7.60723 10.6773 8.125 10.6773H11.875C12.3928 10.6773 12.8125 11.1058 12.8125 11.6343V18.3332M2.5 16.4192V9.18536C2.5 8.03724 3.00485 6.94974 3.87536 6.22271L8.81268 2.09914C9.50336 1.52229 10.4966 1.52229 11.1873 2.09914L16.1246 6.22271C16.9952 6.94974 17.5 8.03724 17.5 9.18536V16.4192C17.5 17.4763 16.6605 18.3332 15.625 18.3332H13.75H6.25H4.375C3.33947 18.3332 2.5 17.4763 2.5 16.4192Z" stroke="white" stroke-width="1.66667" stroke-linecap="round"/>
</svg>
