<svg width="20" height="20" viewBox="0 0 20 20" fill="none" xmlns="http://www.w3.org/2000/svg">
<path d="M7.1875 18.3333V11.6345C7.1875 11.1059 7.60723 10.6775 8.125 10.6775H11.875C12.3928 10.6775 12.8125 11.1059 12.8125 11.6345V18.3333M2.5 16.4194V9.18552C2.5 8.0374 3.00485 6.94991 3.87536 6.22288L8.81268 2.09931C9.50336 1.52246 10.4966 1.52246 11.1873 2.09931L16.1246 6.22288C16.9952 6.94991 17.5 8.03741 17.5 9.18553V16.4194C17.5 17.4764 16.6605 18.3333 15.625 18.3333H13.75H6.25H4.375C3.33947 18.3333 2.5 17.4764 2.5 16.4194Z" stroke="black" stroke-width="1.66667" stroke-linecap="round"/>
</svg>
