<svg width="72" height="72" viewBox="0 0 72 72" fill="none" xmlns="http://www.w3.org/2000/svg">
<rect width="72" height="72" fill="white"/>
<path d="M40.9156 24.1497C40.9156 27.0057 38.6197 29.321 35.7874 29.321C32.9552 29.321 30.6592 27.0057 30.6592 24.1497C30.6592 21.2938 32.9552 18.9785 35.7874 18.9785C38.6197 18.9785 40.9156 21.2938 40.9156 24.1497Z" fill="#D392FF"/>
<path d="M40.9156 36.6468C40.9156 39.5029 38.6197 41.818 35.7874 41.818C32.9552 41.818 30.6592 39.5029 30.6592 36.6468C30.6592 33.7908 32.9552 31.4756 35.7874 31.4756C38.6197 31.4756 40.9156 33.7908 40.9156 36.6468Z" fill="#874BF6"/>
<path d="M51.1828 30.4024C51.1828 32.6663 49.3628 34.5015 47.1177 34.5015C44.8726 34.5015 43.0527 32.6663 43.0527 30.4024C43.0527 28.1385 44.8726 26.3032 47.1177 26.3032C49.3628 26.3032 51.1828 28.1385 51.1828 30.4024Z" fill="#D392FF"/>
<path d="M20.8184 30.4024C20.8184 32.6663 22.6382 34.5015 24.8833 34.5015C27.1284 34.5015 28.9484 32.6663 28.9484 30.4024C28.9484 28.1385 27.1284 26.3032 24.8833 26.3032C22.6382 26.3032 20.8184 28.1385 20.8184 30.4024Z" fill="#D392FF"/>
<path d="M60.9995 36.8609C60.9995 38.646 59.6602 40.0929 58.0081 40.0929C56.3558 40.0929 55.0166 38.646 55.0166 36.8609C55.0166 35.0759 56.3558 33.6289 58.0081 33.6289C59.6602 33.6289 60.9995 35.0759 60.9995 36.8609Z" fill="#D392FF"/>
<path d="M11 36.8609C11 38.646 12.3394 40.0929 13.9915 40.0929C15.6436 40.0929 16.9829 38.646 16.9829 36.8609C16.9829 35.0759 15.6436 33.6289 13.9915 33.6289C12.3394 33.6289 11 35.0759 11 36.8609Z" fill="#D392FF"/>
<path d="M51.1828 43.3311C51.1828 45.5951 49.3628 47.4302 47.1177 47.4302C44.8726 47.4302 43.0527 45.5951 43.0527 43.3311C43.0527 41.0672 44.8726 39.2319 47.1177 39.2319C49.3628 39.2319 51.1828 41.0672 51.1828 43.3311Z" fill="#874BF6"/>
<path d="M20.8184 43.3311C20.8184 45.5951 22.6382 47.4302 24.8833 47.4302C27.1284 47.4302 28.9484 45.5951 28.9484 43.3311C28.9484 41.0672 27.1284 39.2319 24.8833 39.2319C22.6382 39.2319 20.8184 41.0672 20.8184 43.3311Z" fill="#874BF6"/>
<path d="M60.9995 50.0044C60.9995 51.6703 59.6602 53.0209 58.0081 53.0209C56.3558 53.0209 55.0166 51.6703 55.0166 50.0044C55.0166 48.3384 56.3558 46.9878 58.0081 46.9878C59.6602 46.9878 60.9995 48.3384 60.9995 50.0044Z" fill="#874BF6"/>
<path d="M11 50.0044C11 51.6703 12.3394 53.0209 13.9915 53.0209C15.6436 53.0209 16.9829 51.6703 16.9829 50.0044C16.9829 48.3384 15.6436 46.9878 13.9915 46.9878C12.3394 46.9878 11 48.3384 11 50.0044Z" fill="#874BF6"/>
</svg>
