<svg width="72" height="72" viewBox="0 0 72 72" fill="none" xmlns="http://www.w3.org/2000/svg">
<rect width="72" height="72" fill="white"/>
<path d="M30.4406 11.7958C34.0344 11.5955 36.9438 12.4538 39.3502 15.2648C41.9125 18.258 42.1438 20.302 42.1085 24.0595L42.0688 28.6452C42.061 31.2704 42.1693 34.3928 42.0506 36.9569C40.6388 38.4881 39.2297 40.0427 37.7956 41.5413C37.0687 42.42 35.6998 43.257 35.0327 44.1176C32.9416 46.8158 30.3965 48.8092 28.0565 51.2224C27.289 52.7745 24.4246 54.8025 23.3087 56.0527C20.4683 53.0739 20.885 49.4479 20.8908 45.6404L20.894 36.3023L20.8882 26.2711C20.8873 24.8216 20.8407 23.3521 20.9014 21.9061C21.1373 16.2848 25.1381 12.4449 30.4406 11.7958Z" fill="#7C51FE"/>
<path d="M43.278 38.2748C43.7338 38.2581 44.1898 38.2467 44.6459 38.2406C54.6981 38.157 58.152 51.6244 50.8346 57.9031C50.417 58.2615 49.7793 58.5176 49.2932 58.7733C46.7068 60.1335 43.9767 59.9811 41.1624 59.9787L36.2483 59.9715C34.0984 59.9785 32.0646 60.0203 29.9238 59.8151C29.1588 59.7417 24.124 58.2049 24.7559 57.2961C26.1948 55.2264 28.5528 53.2259 30.3985 51.4836C31.0607 50.8587 31.5977 49.9354 32.2948 49.3187C33.4021 48.0191 34.9183 46.8867 36.0491 45.668C38.0967 43.4616 40.079 41.2261 42.3803 39.2728C42.7402 38.9675 42.7834 38.6154 43.278 38.2748Z" fill="#7C51FE"/>
</svg>
