<svg width="72" height="72" viewBox="0 0 72 72" fill="none" xmlns="http://www.w3.org/2000/svg">
<rect width="72" height="72" fill="#3740FF"/>
<g clip-path="url(#clip0_6901_1036)">
<path fill-rule="evenodd" clip-rule="evenodd" d="M42.7798 43.7729C41.3957 46.4051 40.4189 49.9912 38.345 52.3412C36.7598 54.1372 34.531 54.6489 32.2601 53.8433C30.0408 53.0559 29.0909 50.839 28.5584 49.8129C28.2803 49.2773 27.0619 47.2838 25.9105 44.9195C23.9412 40.8761 20.955 35.4859 15.6084 41.3021C15.7278 40.9488 20.7611 30.6534 20.9486 30.3572C23.0099 27.1002 27.854 27.1013 30.0294 30.0862C30.516 30.7478 34.2713 38.0619 34.541 38.4846C35.6671 36.5786 37.4076 31.1233 39.8769 29.5292C41.1656 28.8337 42.1114 28.5736 43.1449 28.68C44.1719 28.7853 45.4068 29.1466 46.132 29.7654C47.026 30.5073 47.5379 31.052 48.1164 32.1868C51.2144 38.7929 56.6194 51.0893 59.8125 53.6146C58.8778 54.076 55.9346 55.4792 54.2605 55.6352C50.6328 55.9729 48.7503 54.8363 47.2883 52.1457C45.7943 49.3953 44.2896 46.5071 42.7798 43.7731L42.7798 43.7729Z" fill="white"/>
<path d="M15.4958 55.226C18.3525 56.3896 21.6005 54.9894 22.7504 52.0987C23.9003 49.208 22.5166 45.9213 19.6599 44.7577C16.8031 43.5941 13.5551 44.9943 12.4053 47.885C11.2554 50.7758 12.639 54.0624 15.4958 55.226Z" fill="white"/>
<path d="M41.9797 25.641C44.293 26.5832 46.9232 25.4494 47.8543 23.1086C48.7854 20.7677 47.665 18.1063 45.3517 17.1641C43.0384 16.2218 40.4082 17.3556 39.4771 19.6965C38.546 22.0373 39.6664 24.6987 41.9797 25.641Z" fill="white"/>
<path d="M24.5657 24.8085C26.879 25.7507 29.5091 24.6169 30.4402 22.276C31.3714 19.9352 30.2509 17.2738 27.9376 16.3315C25.6243 15.3893 22.9942 16.5231 22.063 18.8639C21.1319 21.2048 22.2524 23.8662 24.5657 24.8085Z" fill="white"/>
</g>
<defs>
<clipPath id="clip0_6901_1036">
<rect width="48" height="40" fill="white" transform="translate(12 16)"/>
</clipPath>
</defs>
</svg>
