<svg width="20" height="20" viewBox="0 0 20 20" fill="none" xmlns="http://www.w3.org/2000/svg">
<path d="M2.57652 14.8183L2.95485 14.0758H2.95485L2.57652 14.8183ZM1.84816 14.09L1.10565 14.4683V14.4683L1.84816 14.09ZM18.3328 12.8335L19.1661 12.8368V12.8368L18.3328 12.8335ZM18.1515 14.09L18.894 14.4683L18.894 14.4683L18.1515 14.09ZM17.4232 14.8183L17.8015 15.5608H17.8015L17.4232 14.8183ZM17.4232 5.18166L17.8015 4.43915L17.8015 4.43915L17.4232 5.18166ZM18.1515 5.91002L18.894 5.53169L18.894 5.53169L18.1515 5.91002ZM2.57652 5.18166L2.95485 5.92416L2.95485 5.92416L2.57652 5.18166ZM1.84816 5.91002L2.59067 6.28834L2.59067 6.28834L1.84816 5.91002ZM18.0006 12.4781L17.8908 13.3041L17.8908 13.3041L18.0006 12.4781ZM18.0005 7.52194L18.1103 8.348V8.348L18.0005 7.52194ZM18.3322 7.16625L17.4989 7.17236V7.17236L18.3322 7.16625ZM18.2365 7.4711L18.6834 8.17449V8.17449L18.2365 7.4711ZM18.3145 7.38142L17.5558 7.03669L17.5558 7.03672L18.3145 7.38142ZM18.3144 12.6181L19.0723 12.2716L19.0723 12.2716L18.3144 12.6181ZM18.2365 12.5288L17.7903 13.2327L17.7904 13.2327L18.2365 12.5288ZM14.1665 5C14.1665 4.53976 13.7934 4.16667 13.3332 4.16667C12.8729 4.16667 12.4998 4.53976 12.4998 5H13.3332H14.1665ZM12.4998 15C12.4998 15.4602 12.8729 15.8333 13.3332 15.8333C13.7934 15.8333 14.1665 15.4602 14.1665 15H13.3332H12.4998ZM4.99984 7.5C4.5396 7.5 4.1665 7.8731 4.1665 8.33333C4.1665 8.79357 4.5396 9.16667 4.99984 9.16667V8.33333V7.5ZM9.99984 9.16667C10.4601 9.16667 10.8332 8.79357 10.8332 8.33333C10.8332 7.8731 10.4601 7.5 9.99984 7.5V8.33333V9.16667ZM4.99984 10.8333C4.5396 10.8333 4.1665 11.2064 4.1665 11.6667C4.1665 12.1269 4.5396 12.5 4.99984 12.5V11.6667V10.8333ZM9.99984 12.5C10.4601 12.5 10.8332 12.1269 10.8332 11.6667C10.8332 11.2064 10.4601 10.8333 9.99984 10.8333V11.6667V12.5ZM4.33317 5V5.83333H15.6665V5V4.16667H4.33317V5ZM15.6665 15V14.1667H4.33317V15V15.8333H15.6665V15ZM4.33317 15V14.1667C3.85271 14.1667 3.54248 14.166 3.30637 14.1467C3.07998 14.1282 2.99605 14.0968 2.95485 14.0758L2.57652 14.8183L2.19819 15.5608C2.51351 15.7215 2.84119 15.7809 3.17065 15.8079C3.49037 15.834 3.88021 15.8333 4.33317 15.8333V15ZM1.6665 12.5H0.833171C0.833171 13.3593 0.813088 13.8941 1.10565 14.4683L1.84816 14.09L2.59066 13.7117C2.51992 13.5728 2.49984 13.5076 2.49984 12.5H1.6665ZM2.57652 14.8183L2.95485 14.0758C2.79804 13.9959 2.67056 13.8685 2.59066 13.7117L1.84816 14.09L1.10565 14.4683C1.34534 14.9387 1.72779 15.3212 2.19819 15.5608L2.57652 14.8183ZM18.3328 12.8335L17.4994 12.8303C17.4967 13.5264 17.4652 13.6013 17.409 13.7117L18.1515 14.09L18.894 14.4683C19.1539 13.9583 19.1635 13.4984 19.1661 12.8368L18.3328 12.8335ZM15.6665 15V15.8333C16.1195 15.8333 16.5093 15.834 16.829 15.8079C17.1585 15.7809 17.4862 15.7215 17.8015 15.5608L17.4232 14.8183L17.0448 14.0758C17.0036 14.0968 16.9197 14.1282 16.6933 14.1467C16.4572 14.166 16.147 14.1667 15.6665 14.1667V15ZM18.1515 14.09L17.409 13.7117C17.3291 13.8685 17.2016 13.9959 17.0448 14.0758L17.4232 14.8183L17.8015 15.5608C18.2719 15.3212 18.6543 14.9387 18.894 14.4683L18.1515 14.09ZM15.6665 5V5.83333C16.147 5.83333 16.4572 5.83398 16.6933 5.85327C16.9197 5.87177 17.0036 5.90317 17.0448 5.92416L17.4232 5.18166L17.8015 4.43915C17.4862 4.27849 17.1585 4.21906 16.829 4.19214C16.5093 4.16602 16.1195 4.16667 15.6665 4.16667V5ZM17.4232 5.18166L17.0448 5.92416C17.2016 6.00405 17.3291 6.13154 17.409 6.28834L18.1515 5.91002L18.894 5.53169C18.6543 5.06129 18.2719 4.67883 17.8015 4.43915L17.4232 5.18166ZM4.33317 5V4.16667C3.88021 4.16667 3.49037 4.16602 3.17065 4.19214C2.84119 4.21906 2.51351 4.27849 2.19819 4.43915L2.57652 5.18166L2.95485 5.92416C2.99605 5.90317 3.07998 5.87177 3.30637 5.85327C3.54248 5.83398 3.85271 5.83333 4.33317 5.83333V5ZM1.6665 7.5H2.49984C2.49984 6.49242 2.51992 6.42719 2.59067 6.28834L1.84816 5.91002L1.10565 5.53169C0.813088 6.10588 0.833171 6.64074 0.833171 7.5H1.6665ZM2.57652 5.18166L2.19819 4.43915C1.72779 4.67883 1.34534 5.06129 1.10565 5.53169L1.84816 5.91002L2.59067 6.28834C2.67056 6.13154 2.79804 6.00406 2.95485 5.92416L2.57652 5.18166ZM18.0006 12.4781L18.1104 11.652C17.2956 11.5437 16.6665 10.8446 16.6665 10H15.8332H14.9998C14.9998 11.6913 16.2587 13.0872 17.8908 13.3041L18.0006 12.4781ZM15.8332 10H16.6665C16.6665 9.15538 17.2955 8.45634 18.1103 8.348L18.0005 7.52194L17.8907 6.69587C16.2586 6.91287 14.9998 8.30876 14.9998 10H15.8332ZM18.3322 7.16625L19.1655 7.16015C19.1611 6.55216 19.146 6.02623 18.894 5.53169L18.1515 5.91002L17.409 6.28834C17.4564 6.38144 17.4941 6.51578 17.4989 7.17236L18.3322 7.16625ZM1.6665 12.5H2.49984V7.5H1.6665H0.833171V12.5H1.6665ZM18.0005 7.52194L18.1103 8.348C18.1651 8.34072 18.2452 8.33047 18.3147 8.31674C18.3785 8.30416 18.5295 8.27226 18.6834 8.17449L18.2365 7.4711L17.7897 6.7677C17.8513 6.72854 17.9054 6.70734 17.9383 6.69637C17.9699 6.68585 17.9911 6.68179 17.9919 6.68165C17.9933 6.68137 17.9875 6.68252 17.9678 6.68537C17.9484 6.68818 17.925 6.69131 17.8907 6.69587L18.0005 7.52194ZM18.3322 7.16625L17.4989 7.17236C17.4991 7.2029 17.4992 7.22206 17.4991 7.23761C17.499 7.25326 17.4987 7.25467 17.4991 7.24881C17.4995 7.2427 17.504 7.15057 17.5558 7.03669L18.3145 7.38142L19.0732 7.72616C19.1439 7.57048 19.1577 7.42855 19.1624 7.3542C19.1669 7.28378 19.1658 7.20583 19.1655 7.16014L18.3322 7.16625ZM18.2365 7.4711L18.6834 8.17449C18.8571 8.06414 18.988 7.91349 19.0732 7.72612L18.3145 7.38142L17.5558 7.03672C17.5733 6.99825 17.6038 6.94308 17.6537 6.88568C17.7036 6.82829 17.754 6.79036 17.7897 6.7677L18.2365 7.4711ZM18.3328 12.8335L19.1661 12.8368C19.1663 12.7909 19.1671 12.7131 19.1624 12.6429C19.1575 12.569 19.1434 12.4271 19.0723 12.2716L18.3144 12.6181L17.5565 12.9646C17.53 12.9067 17.5161 12.8554 17.5086 12.8183C17.5015 12.7833 17.4998 12.7588 17.4994 12.7532C17.499 12.7475 17.4993 12.749 17.4995 12.7648C17.4996 12.7804 17.4996 12.7997 17.4994 12.8303L18.3328 12.8335ZM18.0006 12.4781L17.8908 13.3041C17.9251 13.3087 17.9486 13.3118 17.968 13.3146C17.9876 13.3175 17.9935 13.3187 17.9921 13.3184C17.9915 13.3183 17.9704 13.3142 17.9389 13.3038C17.9061 13.2929 17.852 13.2717 17.7903 13.2327L18.2365 12.5288L18.6826 11.8249C18.5288 11.7275 18.378 11.6957 18.3145 11.6832C18.2452 11.6695 18.1652 11.6593 18.1104 11.652L18.0006 12.4781ZM18.3144 12.6181L19.0723 12.2716C18.9869 12.0848 18.8561 11.9349 18.6826 11.8249L18.2365 12.5288L17.7904 13.2327C17.7552 13.2104 17.7047 13.1726 17.6546 13.1151C17.6044 13.0577 17.5739 13.0025 17.5565 12.9647L18.3144 12.6181ZM13.3332 5H12.4998V15H13.3332H14.1665V5H13.3332ZM4.99984 8.33333V9.16667H9.99984V8.33333V7.5H4.99984V8.33333ZM4.99984 11.6667V12.5H9.99984V11.6667V10.8333H4.99984V11.6667Z" fill="black"/>
</svg>
