<svg width="20" height="20" viewBox="0 0 20 20" fill="none" xmlns="http://www.w3.org/2000/svg">
<path d="M2.57701 14.8183L2.95533 14.0758H2.95533L2.57701 14.8183ZM1.84865 14.09L1.10614 14.4683V14.4683L1.84865 14.09ZM18.3333 12.8335L19.1666 12.8368V12.8368L18.3333 12.8335ZM18.152 14.09L18.8945 14.4683L18.8945 14.4683L18.152 14.09ZM17.4236 14.8183L17.802 15.5608H17.802L17.4236 14.8183ZM17.4236 5.18166L17.802 4.43915L17.802 4.43915L17.4236 5.18166ZM18.152 5.91002L18.8945 5.53169L18.8945 5.53169L18.152 5.91002ZM2.57701 5.18166L2.95533 5.92416L2.95533 5.92416L2.57701 5.18166ZM1.84865 5.91002L2.59115 6.28834L2.59115 6.28834L1.84865 5.91002ZM18.0011 12.4781L17.8913 13.3041L17.8913 13.3041L18.0011 12.4781ZM18.001 7.52194L18.1108 8.348V8.348L18.001 7.52194ZM18.3327 7.16625L17.4994 7.17236V7.17236L18.3327 7.16625ZM18.237 7.4711L18.6839 8.17449V8.17449L18.237 7.4711ZM18.315 7.38142L17.5563 7.03669L17.5563 7.03672L18.315 7.38142ZM18.3149 12.6181L19.0728 12.2716L19.0728 12.2716L18.3149 12.6181ZM18.237 12.5288L17.7908 13.2327L17.7908 13.2327L18.237 12.5288ZM14.167 5C14.167 4.53976 13.7939 4.16667 13.3337 4.16667C12.8734 4.16667 12.5003 4.53976 12.5003 5H13.3337H14.167ZM12.5003 15C12.5003 15.4602 12.8734 15.8333 13.3337 15.8333C13.7939 15.8333 14.167 15.4602 14.167 15H13.3337H12.5003ZM5.00033 7.5C4.54009 7.5 4.16699 7.8731 4.16699 8.33333C4.16699 8.79357 4.54009 9.16667 5.00033 9.16667V8.33333V7.5ZM10.0003 9.16667C10.4606 9.16667 10.8337 8.79357 10.8337 8.33333C10.8337 7.8731 10.4606 7.5 10.0003 7.5V8.33333V9.16667ZM5.00033 10.8333C4.54009 10.8333 4.16699 11.2064 4.16699 11.6667C4.16699 12.1269 4.54009 12.5 5.00033 12.5V11.6667V10.8333ZM10.0003 12.5C10.4606 12.5 10.8337 12.1269 10.8337 11.6667C10.8337 11.2064 10.4606 10.8333 10.0003 10.8333V11.6667V12.5ZM4.33366 5V5.83333H15.667V5V4.16667H4.33366V5ZM15.667 15V14.1667H4.33366V15V15.8333H15.667V15ZM4.33366 15V14.1667C3.8532 14.1667 3.54297 14.166 3.30686 14.1467C3.08047 14.1282 2.99654 14.0968 2.95533 14.0758L2.57701 14.8183L2.19868 15.5608C2.514 15.7215 2.84168 15.7809 3.17114 15.8079C3.49086 15.834 3.8807 15.8333 4.33366 15.8333V15ZM1.66699 12.5H0.833659C0.833659 13.3593 0.813576 13.8941 1.10614 14.4683L1.84865 14.09L2.59115 13.7117C2.52041 13.5728 2.50033 13.5076 2.50033 12.5H1.66699ZM2.57701 14.8183L2.95533 14.0758C2.79853 13.9959 2.67105 13.8685 2.59115 13.7117L1.84865 14.09L1.10614 14.4683C1.34583 14.9387 1.72828 15.3212 2.19868 15.5608L2.57701 14.8183ZM18.3333 12.8335L17.4999 12.8303C17.4972 13.5264 17.4657 13.6013 17.4095 13.7117L18.152 14.09L18.8945 14.4683C19.1544 13.9583 19.164 13.4984 19.1666 12.8368L18.3333 12.8335ZM15.667 15V15.8333C16.12 15.8333 16.5098 15.834 16.8295 15.8079C17.159 15.7809 17.4867 15.7215 17.802 15.5608L17.4236 14.8183L17.0453 14.0758C17.0041 14.0968 16.9202 14.1282 16.6938 14.1467C16.4577 14.166 16.1475 14.1667 15.667 14.1667V15ZM18.152 14.09L17.4095 13.7117C17.3296 13.8685 17.2021 13.9959 17.0453 14.0758L17.4236 14.8183L17.802 15.5608C18.2724 15.3212 18.6548 14.9387 18.8945 14.4683L18.152 14.09ZM15.667 5V5.83333C16.1475 5.83333 16.4577 5.83398 16.6938 5.85327C16.9202 5.87177 17.0041 5.90317 17.0453 5.92416L17.4236 5.18166L17.802 4.43915C17.4867 4.27849 17.159 4.21906 16.8295 4.19214C16.5098 4.16602 16.12 4.16667 15.667 4.16667V5ZM17.4236 5.18166L17.0453 5.92416C17.2021 6.00405 17.3296 6.13154 17.4095 6.28834L18.152 5.91002L18.8945 5.53169C18.6548 5.06129 18.2724 4.67883 17.802 4.43915L17.4236 5.18166ZM4.33366 5V4.16667C3.8807 4.16667 3.49086 4.16602 3.17114 4.19214C2.84168 4.21906 2.514 4.27849 2.19868 4.43915L2.57701 5.18166L2.95533 5.92416C2.99654 5.90317 3.08047 5.87177 3.30686 5.85327C3.54297 5.83398 3.8532 5.83333 4.33366 5.83333V5ZM1.66699 7.5H2.50033C2.50033 6.49242 2.52041 6.42719 2.59115 6.28834L1.84865 5.91002L1.10614 5.53169C0.813576 6.10588 0.833659 6.64074 0.833659 7.5H1.66699ZM2.57701 5.18166L2.19868 4.43915C1.72828 4.67883 1.34583 5.06129 1.10614 5.53169L1.84865 5.91002L2.59115 6.28834C2.67105 6.13154 2.79853 6.00406 2.95533 5.92416L2.57701 5.18166ZM18.0011 12.4781L18.1109 11.652C17.2961 11.5437 16.667 10.8446 16.667 10H15.8337H15.0003C15.0003 11.6913 16.2592 13.0872 17.8913 13.3041L18.0011 12.4781ZM15.8337 10H16.667C16.667 9.15538 17.296 8.45634 18.1108 8.348L18.001 7.52194L17.8912 6.69587C16.2591 6.91287 15.0003 8.30876 15.0003 10H15.8337ZM18.3327 7.16625L19.166 7.16015C19.1615 6.55216 19.1465 6.02623 18.8945 5.53169L18.152 5.91002L17.4095 6.28834C17.4569 6.38144 17.4946 6.51578 17.4994 7.17236L18.3327 7.16625ZM1.66699 12.5H2.50033V7.5H1.66699H0.833659V12.5H1.66699ZM18.001 7.52194L18.1108 8.348C18.1656 8.34072 18.2457 8.33047 18.3152 8.31674C18.3789 8.30416 18.53 8.27226 18.6839 8.17449L18.237 7.4711L17.7901 6.7677C17.8518 6.72854 17.9059 6.70734 17.9388 6.69637C17.9704 6.68585 17.9916 6.68179 17.9923 6.68165C17.9938 6.68137 17.988 6.68252 17.9683 6.68537C17.9489 6.68818 17.9255 6.69131 17.8912 6.69587L18.001 7.52194ZM18.3327 7.16625L17.4994 7.17236C17.4996 7.2029 17.4997 7.22206 17.4996 7.23761C17.4995 7.25326 17.4992 7.25467 17.4996 7.24881C17.5 7.2427 17.5045 7.15057 17.5563 7.03669L18.315 7.38142L19.0736 7.72616C19.1444 7.57048 19.1582 7.42855 19.1629 7.3542C19.1674 7.28378 19.1663 7.20583 19.166 7.16014L18.3327 7.16625ZM18.237 7.4711L18.6839 8.17449C18.8576 8.06414 18.9885 7.91349 19.0737 7.72612L18.315 7.38142L17.5563 7.03672C17.5737 6.99825 17.6043 6.94308 17.6542 6.88568C17.7041 6.82829 17.7545 6.79036 17.7901 6.7677L18.237 7.4711ZM18.3333 12.8335L19.1666 12.8368C19.1668 12.7909 19.1676 12.7131 19.1629 12.6429C19.158 12.569 19.1439 12.4271 19.0728 12.2716L18.3149 12.6181L17.557 12.9646C17.5305 12.9067 17.5166 12.8554 17.5091 12.8183C17.502 12.7833 17.5003 12.7588 17.4999 12.7532C17.4995 12.7475 17.4998 12.749 17.5 12.7648C17.5001 12.7804 17.5001 12.7997 17.4999 12.8303L18.3333 12.8335ZM18.0011 12.4781L17.8913 13.3041C17.9256 13.3087 17.9491 13.3118 17.9685 13.3146C17.9881 13.3175 17.994 13.3187 17.9926 13.3184C17.9919 13.3183 17.9709 13.3142 17.9394 13.3038C17.9066 13.2929 17.8525 13.2717 17.7908 13.2327L18.237 12.5288L18.6831 11.8249C18.5293 11.7275 18.3785 11.6957 18.315 11.6832C18.2456 11.6695 18.1657 11.6593 18.1109 11.652L18.0011 12.4781ZM18.3149 12.6181L19.0728 12.2716C18.9874 12.0848 18.8566 11.9349 18.6831 11.8249L18.237 12.5288L17.7908 13.2327C17.7557 13.2104 17.7052 13.1726 17.6551 13.1151C17.6049 13.0577 17.5744 13.0025 17.557 12.9647L18.3149 12.6181ZM13.3337 5H12.5003V15H13.3337H14.167V5H13.3337ZM5.00033 8.33333V9.16667H10.0003V8.33333V7.5H5.00033V8.33333ZM5.00033 11.6667V12.5H10.0003V11.6667V10.8333H5.00033V11.6667Z" fill="white"/>
</svg>
