<svg width="72" height="72" viewBox="0 0 72 72" fill="none" xmlns="http://www.w3.org/2000/svg">
<rect width="72" height="72" fill="white"/>
<g clip-path="url(#clip0_6901_903)">
<path fill-rule="evenodd" clip-rule="evenodd" d="M27.397 50.7548C30.2742 50.6893 32.9614 49.3037 34.6835 46.9978L43.3739 35.3617C46.4672 31.2197 45.6172 25.3545 41.4752 22.2611C37.3334 19.1678 31.4681 20.0179 28.3748 24.1598L26.8384 26.217L24.8758 23.8243C21.5971 19.8275 15.6992 19.2452 11.7024 22.5238C7.70556 25.8024 7.12332 31.7003 10.402 35.6971L19.9471 47.3333C21.7723 49.5585 24.5197 50.8202 27.397 50.7548Z" fill="#FF553C"/>
<path fill-rule="evenodd" clip-rule="evenodd" d="M45.397 50.7548C48.2742 50.6893 50.9614 49.3037 52.6835 46.9978L61.3739 35.3617C64.4672 31.2197 63.6172 25.3545 59.4752 22.2611C55.3334 19.1678 49.4681 20.0179 46.3748 24.1598L44.8384 26.217L42.8758 23.8243C39.5971 19.8275 33.6992 19.2452 29.7024 22.5238C25.7056 25.8024 25.1233 31.7003 28.402 35.6971L37.9471 47.3333C39.7723 49.5585 42.5197 50.8202 45.397 50.7548Z" fill="#FF553C"/>
<path d="M38.6626 27.5547C37.5292 26.8874 36.1285 26.8593 34.9692 27.4808L24.4054 33.1437C22.5748 34.1249 21.8881 36.401 22.8718 38.2272C23.8554 40.0535 26.1367 40.7386 27.9673 39.7572L33.4686 36.8082C33.465 36.8739 33.4631 36.9399 33.4631 37.0065V68.5052C33.4631 70.4364 35.0325 72.0021 36.9683 72.0021C38.9041 72.0021 40.4734 70.4364 40.4734 68.5052V37.3388L44.4556 39.6833C46.2453 40.7372 48.5523 40.1439 49.6085 38.3584C50.6647 36.5729 50.0701 34.2712 48.2805 33.2175L38.6626 27.5547Z" fill="white"/>
</g>
<defs>
<clipPath id="clip0_6901_903">
<rect width="55.2" height="31.2" fill="white" transform="translate(8.40039 20.3999)"/>
</clipPath>
</defs>
</svg>
